<svg xmlns="http://www.w3.org/2000/svg" xmlns:xlink="http://www.w3.org/1999/xlink" version="1.1" width="1000" height="1000" viewBox="0 0 1000 1000" xml:space="preserve">
<desc>Created with Fabric.js 3.5.0</desc>
<defs>
</defs>
<rect x="0" y="0" width="100%" height="100%" fill="rgba(255,255,255,0)"/>
<g transform="matrix(0.2444 0 0 0.2444 500.0094 500.0094)" id="573703">
<g style="" vector-effect="non-scaling-stroke">
		<g transform="matrix(1 0 0 1 -0.0019 0.0003)" id="_1421344023328">
<path style="stroke: none; stroke-width: 1; stroke-dasharray: none; stroke-linecap: butt; stroke-dashoffset: 0; stroke-linejoin: miter; stroke-miterlimit: 4; is-custom-font: none; font-file-url: none; fill: rgb(238,238,238); fill-rule: nonzero; opacity: 1;" transform=" translate(-2045.6331, -2045.8654)" d="M 4030.06 2540.77 c -273.24 1096.01 -1383.32 1763.02 -2479.46 1489.71 c -1095.68 -273.24 -1762.69 -1383.39 -1489.33 -2479.31 c 273.12 -1096.13 1383.2 -1763.19 2479 -1489.95 c 1096.06 273.24 1763.03 1383.51 1489.76 2479.57 l 0.02 -0.02 z" stroke-linecap="round"/>
</g>
		<g transform="matrix(1 0 0 1 -71.4581 -37.585)" id="_1421344023328">
<path style="stroke: none; stroke-width: 1; stroke-dasharray: none; stroke-linecap: butt; stroke-dashoffset: 0; stroke-linejoin: miter; stroke-miterlimit: 4; is-custom-font: none; font-file-url: none; fill: rgb(0,173,181); fill-rule: nonzero; opacity: 1;" transform=" translate(-1974.1769, -2008.28)" d="M 2947.77 1754.38 c 40.72 -272.26 -166.56 -418.61 -450 -516.24 l 91.95 -368.8 l -224.5 -55.94 l -89.51 359.09 c -59.02 -14.72 -119.63 -28.59 -179.87 -42.34 l 90.16 -361.46 l -224.36 -55.94 l -92 368.68 c -48.84 -11.12 -96.81 -22.11 -143.35 -33.69 l 0.26 -1.16 l -309.59 -77.31 l -59.72 239.78 c 0 0 166.56 38.18 163.05 40.53 c 90.91 22.69 107.35 82.87 104.62 130.57 l -104.74 420.15 c 6.26 1.59 14.38 3.89 23.34 7.49 c -7.49 -1.86 -15.46 -3.89 -23.73 -5.87 l -146.81 588.57 c -11.11 27.62 -39.31 69.07 -102.87 53.33 c 2.25 3.26 -163.17 -40.72 -163.17 -40.72 l -111.46 256.98 l 292.15 72.83 c 54.35 13.63 107.61 27.89 160.06 41.3 l -92.9 373.03 l 224.24 55.94 l 92 -369.07 c 61.26 16.63 120.71 31.97 178.91 46.43 l -91.69 367.33 l 224.51 55.94 l 92.89 -372.33 c 382.82 72.45 670.67 43.24 791.83 -303.02 c 97.63 -278.78 -4.86 -439.58 -206.26 -544.44 c 146.69 -33.83 257.18 -130.31 286.64 -329.61 l -0.07 -0.05 z m -512.93 719.26 c -69.38 278.78 -538.76 128.08 -690.94 90.29 l 123.28 -494.2 c 152.17 37.99 640.17 113.17 567.67 403.91 z m 69.43 -723.3 c -63.29 253.58 -453.96 124.75 -580.69 93.16 l 111.77 -448.21 c 126.73 31.59 534.85 90.55 468.94 355.05 l -0.02 0 z" stroke-linecap="round"/>
</g>
</g>
</g>
</svg>